<?xml version="1.0" encoding="utf-8"?>
<!-- Generator: Adobe Illustrator 26.3.1, SVG Export Plug-In . SVG Version: 6.00 Build 0)  -->
<svg version="1.1" id="Layer_1" xmlns="http://www.w3.org/2000/svg" xmlns:xlink="http://www.w3.org/1999/xlink" x="0px" y="0px"
	 viewBox="0 0 685 385" style="enable-background:new 0 0 685 385;" xml:space="preserve">
<style type="text/css">
	.st0{display:none;}
	.st1{display:inline;}
	.st2{fill:#AECFC2;}
	.st3{fill:#D4CF8B;}
	.st4{fill:#A1C8DE;}
	.st5{fill:#8CC63F;}
	.st6{fill:#007A06;}
	.st7{fill:#648FAB;}
</style>
<path class="st7" d="M545-10v-45h-15v-30h-15v-15h-15v-15h-15v-15h-15v-15h-30v-15h-45v-15H290v15h-45v15h-30v15h-15v15h-15v15h-15
	v15h-15v30h-15v45h-15V95h15v45h15v30h15v15h15v15h15v15h15v15h30v15h45v15h105v-15h45v-15h30v-15h15v-15h15v-15h15v-15h15v-30h15
	V95h15V-10H545z M425-115h15v15h15v15h15v15h15v15h15v15h-30v15h-30v15h-30V5h-30v15h-15V5h15v-30h15v-30h15v-30h15V-115z M350-145
	h15v15h45v30h-15v30h-15v30h-15v30h-15V-145z M275-130h45v-15h15v135h-15v-30h-15v-30h-15v-30h-15V-130z M185-55h15v-15h15v-15h15
	v-15h15v-15h15v30h15v30h15v30h15V5h15v15h-15V5h-30v-15h-30v-15h-30v-15h-30V-55z M155,20h15v-45h30v15h30V5h30v15h30v15H155V20z
	 M170,110V65h-15V50h135v15h-30v15h-30v15h-30v15H170z M260,200h-15v-15h-15v-15h-15v-15h-15v-15h-15v-15h30v-15h30V95h30V80h30V65
	h15v15h-15v30h-15v30h-15v30h-15V200z M335,230h-15v-15h-45v-30h15v-30h15v-30h15V95h15V230z M320,50V35h15V20h15v15h15v15h-15v15
	h-15V50H320z M410,215h-45v15h-15V95h15v30h15v30h15v30h15V215z M500,140h-15v15h-15v15h-15v15h-15v15h-15v-30h-15v-30h-15v-30h-15
	V80h-15V65h15v15h30v15h30v15h30v15h30V140z M530,65h-15v45h-30V95h-30V80h-30V65h-30V50h135V65z M530,35H395V20h30V5h30v-15h30v-15
	h30v45h15V35z"/>
</svg>
