<?xml version="1.0" encoding="utf-8"?>
<!-- Generator: Adobe Illustrator 26.3.1, SVG Export Plug-In . SVG Version: 6.00 Build 0)  -->
<svg version="1.1" id="Layer_1" xmlns="http://www.w3.org/2000/svg" xmlns:xlink="http://www.w3.org/1999/xlink" x="0px" y="0px"
	 viewBox="0 0 155 155" style="enable-background:new 0 0 155 155;" xml:space="preserve">
<style type="text/css">
	.st0{display:none;}
	.st1{display:inline;}
	.st2{fill:#AECFC2;}
	.st3{fill:#D4CF8B;}
	.st4{fill:#A1C8DE;}
	.st5{fill:#8CC63F;}
	.st6{fill:#007A06;}
	.st7{fill:#760000;}
	.st8{display:none;fill:#648FAB;}
	.st9{fill:#648FAB;}
	.st10{fill:#003F5B;}
</style>
<path class="st5" d="M145,60V45h-5V35h-5v-5h-5v-5h-5v-5h-5v-5h-10v-5H95V5H60v5H45v5H35v5h-5v5h-5v5h-5v5h-5v10h-5v15H5v35h5v15h5
	v10h5v5h5v5h5v5h5v5h10v5h15v5h35v-5h15v-5h10v-5h5v-5h5v-5h5v-5h5v-10h5V95h5V60H145z M105,25h5v5h5v5h5v5h5v5h5v5h-10v5h-10v5h-10
	v5H90v5h-5v-5h5V55h5V45h5V35h5V25z M80,15h5v5h15v10h-5v10h-5v10h-5v10h-5V15z M55,20h15v-5h5v45h-5V50h-5V40h-5V30h-5V20z M25,45
	h5v-5h5v-5h5v-5h5v-5h5v10h5v10h5v10h5v10h5v5h-5v-5H55v-5H45v-5H35v-5H25V45z M15,70h5V55h10v5h10v5h10v5h10v5H15V70z M20,100V85
	h-5v-5h45v5H50v5H40v5H30v5H20z M50,130h-5v-5h-5v-5h-5v-5h-5v-5h-5v-5h10v-5h10v-5h10v-5h10v-5h5v5h-5v10h-5v10h-5v10h-5V130z
	 M75,140h-5v-5H55v-10h5v-10h5v-10h5V95h5V140z M70,80v-5h5v-5h5v5h5v5h-5v5h-5v-5H70z M100,135H85v5h-5V95h5v10h5v10h5v10h5V135z
	 M130,110h-5v5h-5v5h-5v5h-5v5h-5v-10h-5v-10h-5v-10h-5V90h-5v-5h5v5h10v5h10v5h10v5h10V110z M140,85h-5v15h-10v-5h-10v-5h-10v-5H95
	v-5h45V85z M140,75H95v-5h10v-5h10v-5h10v-5h10v15h5V75z"/>
</svg>
