<?xml version="1.0" encoding="utf-8"?>
<!-- Generator: Adobe Illustrator 26.3.1, SVG Export Plug-In . SVG Version: 6.00 Build 0)  -->
<svg version="1.1" id="Layer_1" xmlns="http://www.w3.org/2000/svg" xmlns:xlink="http://www.w3.org/1999/xlink" x="0px" y="0px"
	 viewBox="0 0 55 55" style="enable-background:new 0 0 55 55;" xml:space="preserve">
<style type="text/css">
	.st0{display:none;}
	.st1{display:inline;}
	.st2{fill:#AECFC2;}
	.st3{fill:#D4CF8B;}
	.st4{fill:#A1C8DE;}
	.st5{fill:#8CC63F;}
	.st6{fill:#007A06;}
	.st7{fill:#760000;}
	.st8{display:none;fill:#648FAB;}
	.st9{fill:#648FAB;}
	.st10{fill:#003F5B;}
</style>
<path class="st7" d="M45,15v-5h-5l0.19-5H15v5h-5v5H5v25h5v5h5v5h24.96L40,45h5v-5h5V14.92L45,15z M20,10h15v5h-5v5h-5v-5h-5V10z
	 M15,35h-5V20h5v5h5v5h-5V35z M35,45H20v-5h5v-5h5v5h5V45z M45,35h-5v-5h-5v-5h5v-5h5V35z"/>
</svg>
