<?xml version="1.0" encoding="utf-8"?>
<!-- Generator: Adobe Illustrator 26.3.1, SVG Export Plug-In . SVG Version: 6.00 Build 0)  -->
<svg version="1.1" id="Layer_1" xmlns="http://www.w3.org/2000/svg" xmlns:xlink="http://www.w3.org/1999/xlink" x="0px" y="0px"
	 viewBox="0 0 75 85" style="enable-background:new 0 0 75 85;" xml:space="preserve">
<style type="text/css">
	.st0{display:none;}
	.st1{display:inline;}
	.st2{fill:#AECFC2;}
	.st3{fill:#D4CF8B;}
	.st4{fill:#A1C8DE;}
	.st5{fill:#8CC63F;}
	.st6{fill:#007A06;}
	.st7{fill:#760000;}
	.st8{display:none;fill:#648FAB;}
	.st9{fill:#648FAB;}
	.st10{fill:#003F5B;}
</style>
<path class="st7" d="M-5-5v95h85V-5H-5z M60,20v5h-5v5h-5v5h-5v15h5v5h5v5h5v5h5v10H55v-5h-5v-5h-5v-5h-5v-5h-5v5h-5v5h-5v5h-5v5H10
	V65h5v-5h5v-5h5v-5h5V35h-5v-5h-5v-5h-5v-5h-5V10h10v5h5v5h5v5h5v5h5v-5h5v-5h5v-5h5v-5h10v10H60z"/>
</svg>
