<?xml version="1.0" encoding="utf-8"?>
<!-- Generator: Adobe Illustrator 26.3.1, SVG Export Plug-In . SVG Version: 6.00 Build 0)  -->
<svg version="1.1" id="Layer_1" xmlns="http://www.w3.org/2000/svg" xmlns:xlink="http://www.w3.org/1999/xlink" x="0px" y="0px"
	 viewBox="0 0 70 50.1" style="enable-background:new 0 0 70 50.1;" xml:space="preserve">
<style type="text/css">
	.st0{display:none;}
	.st1{display:inline;}
	.st2{fill:#AECFC2;}
	.st3{fill:#D4CF8B;}
	.st4{fill:#A1C8DE;}
	.st5{fill:#8CC63F;}
	.st6{fill:#007A06;}
	.st7{fill:#648FAB;}
	.st8{fill:#760000;}
</style>
<polygon class="st8" points="45,20 45,30 50,30 50,35 55,35 55,40.1 60,40.1 60,45 65,45 65,55 50,55 50,45 45,45 45,40 40,40 
	40,35 30,35 30,40 25,40 25,45 20.05,45 20.05,55 5,55 5,45 10.05,45 10.05,40.1 15,40.1 15,35 20,35 20,30 25,30 25,20 20,20 
	20,15 15,15 15,10 10,10 10,5 5,5 5,-5 20,-5 20,5 25,5 25,10 30,10 30,15 40,15 40,10 45,10 45,5 50,5 50,-5 65,-5 65,5 60,5 
	60,10 55,10 55,15 50,15 50,20 "/>
</svg>
